<svg width="512" height="512" viewBox="0 0 512 512" fill="none" xmlns="http://www.w3.org/2000/svg">
<path d="M177.469 171.875L183.234 173.281C184.078 173.281 184.828 173.703 185.484 174.547C186.141 175.391 186.469 176.188 186.469 176.938C186.469 177.688 185.484 179.703 183.516 182.984C181.547 186.266 179.203 190.016 176.484 194.234C173.859 198.359 172.453 200.609 172.266 200.984C179.578 200.422 184.734 200.141 187.734 200.141C190.828 200.141 192.938 200.375 194.062 200.844C195.188 201.219 196.453 202.391 197.859 204.359C199.359 206.234 200.719 207.688 201.938 208.719C203.156 209.656 203.766 211.109 203.766 213.078C203.766 215.047 202.547 216.734 200.109 218.141C197.766 219.453 195.234 220.25 192.516 220.531C170.766 222.688 158.766 223.812 156.516 223.906C148.922 235.531 138.281 253.672 124.594 278.328C111 302.891 103.781 318.266 102.938 324.453C102.562 327.266 102.375 329.562 102.375 331.344C102.375 335 104.297 336.828 108.141 336.828C111.984 336.828 116.25 335.375 120.938 332.469C125.625 329.469 129.938 326.234 133.875 322.766C144.375 313.391 150 308.703 150.75 308.703C153.188 308.703 154.406 312.922 154.406 321.359C154.406 325.953 152.297 330.078 148.078 333.734C138.609 341.891 130.641 348.031 124.172 352.156C117.703 356.281 111.234 358.344 104.766 358.344C103.359 358.344 102.047 358.203 100.828 357.922C93.3281 356.516 87.7969 353.797 84.2344 349.766C80.7656 345.641 79.0312 340.109 79.0312 333.172C79.125 326.234 81.1875 317.844 85.2188 308C89.3438 298.062 94.5 287.516 100.688 276.359C110.812 258.172 120.938 241.109 131.062 225.172L125.719 225.875C114.844 227.094 108.516 227.703 106.734 227.703H105.469C102.75 227.703 100.125 227.188 97.5938 226.156C95.0625 225.031 93.7969 223.672 93.7969 222.078C93.7969 220.484 94.4531 218.938 95.7656 217.438C97.1719 215.938 98.0156 214.766 98.2969 213.922C98.9531 211.859 101.391 209.562 105.609 207.031C109.922 204.5 113.156 203.188 115.312 203.094C117.469 202.906 119.531 202.766 121.5 202.672C123.562 202.578 125.812 202.484 128.25 202.391C130.781 202.297 132.703 202.203 134.016 202.109L146.672 201.547C154.547 189.734 159.938 182.141 162.844 178.766C165.844 175.391 167.578 173.562 168.047 173.281C168.516 172.906 169.453 172.719 170.859 172.719L177.469 171.875ZM148.354 353.844L141.463 353.562H138.932C137.994 353.281 137.01 352.719 135.979 351.875C134.854 351.031 134.01 350.422 133.448 350.047C132.885 349.672 132.604 349.016 132.604 348.078C132.604 347.047 132.979 345.312 133.729 342.875C152.01 302.656 169.682 270.5 186.744 246.406C188.619 243.781 191.619 241.812 195.744 240.5C199.963 239.094 204.041 238.391 207.979 238.391C210.323 238.391 211.494 240.219 211.494 243.875C211.494 244.906 211.119 246.312 210.369 248.094C209.619 249.781 207.744 252.594 204.744 256.531C201.744 260.469 198.182 264.969 194.057 270.031C189.932 275.094 187.588 278 187.026 278.75C199.869 265.438 211.448 255.547 221.76 249.078C232.166 242.516 239.666 239.234 244.26 239.234C248.948 239.234 252.51 240.594 254.948 243.312C257.479 245.938 258.744 248.797 258.744 251.891C258.744 254.891 258.51 257.422 258.041 259.484C257.666 261.453 256.916 263.562 255.791 265.812C254.666 267.969 253.682 269.844 252.838 271.438C252.088 272.938 250.776 274.953 248.901 277.484C247.026 279.922 245.713 281.609 244.963 282.547C244.307 283.484 242.854 285.266 240.604 287.891C238.448 290.516 237.276 291.969 237.088 292.25C239.713 289.625 243.369 285.734 248.057 280.578C252.744 275.422 256.682 271.109 259.869 267.641C263.151 264.172 267.229 260.281 272.104 255.969C276.979 251.562 281.526 248 285.744 245.281C295.869 238.906 306.135 235.719 316.541 235.719C320.104 235.719 323.104 236.844 325.541 239.094C327.979 241.344 329.198 244.062 329.198 247.25C329.198 250.344 325.401 257.844 317.807 269.75C310.213 281.562 302.619 293.469 295.026 305.469C287.526 317.375 283.776 324.875 283.776 327.969C283.776 332.281 284.573 334.859 286.166 335.703C287.76 336.453 289.682 336.734 291.932 336.547C294.182 336.359 297.323 334.906 301.354 332.188C305.479 329.469 309.135 326.656 312.323 323.75C317.479 319.062 322.26 314.516 326.666 310.109C327.604 309.266 328.635 308.844 329.76 308.844C331.541 308.844 332.619 310.203 332.994 312.922C333.369 315.641 333.557 318.453 333.557 321.359C333.557 324.266 333.276 326.281 332.713 327.406C329.994 332.656 323.994 339.078 314.713 346.672C305.432 354.266 296.526 358.062 287.994 358.062C286.963 358.062 286.213 358.016 285.744 357.922C276.088 356.984 269.385 354.359 265.635 350.047C261.979 345.641 260.151 340.438 260.151 334.438C260.151 328.438 262.166 321.172 266.198 312.641C270.323 304.109 274.823 296.375 279.698 289.438C284.573 282.5 289.026 276.266 293.057 270.734C297.182 265.109 299.244 262.062 299.244 261.594C299.244 261.125 298.869 260.891 298.119 260.891C295.213 260.891 288.744 265.578 278.713 274.953C261.557 290.984 246.744 306.453 234.276 321.359C230.994 325.297 223.213 335.281 210.932 351.312C209.526 353.188 207.276 354.125 204.182 354.125C201.182 354.125 198.041 353.562 194.76 352.438C191.479 351.219 189.838 349.672 189.838 347.797C189.838 346.859 197.291 333.734 212.198 308.422C227.104 283.016 234.557 269.188 234.557 266.938C234.557 264.594 233.151 263.422 230.338 263.422C227.619 263.422 221.948 267.547 213.323 275.797C189.604 298.484 171.229 321.031 158.198 343.438C157.354 344.75 155.713 346.812 153.276 349.625C150.838 352.438 149.198 353.844 148.354 353.844ZM505.958 142.203C507.739 142.203 509.145 142.766 510.176 143.891C511.208 145.016 511.723 146.188 511.723 147.406C511.723 148.531 510.786 150.688 508.911 153.875C507.129 156.969 502.958 163.812 496.395 174.406C489.833 184.906 484.723 193.156 481.067 199.156C459.786 233.75 443.098 263 431.004 286.906C418.911 310.812 412.864 325.25 412.864 330.219V331.344C412.864 335.188 414.27 337.109 417.083 337.109C419.895 337.109 423.27 335.797 427.208 333.172C431.239 330.547 434.754 327.734 437.754 324.734C440.754 321.734 443.754 318.641 446.754 315.453C449.848 312.172 451.723 310.25 452.379 309.688C453.036 309.125 453.879 308.844 454.911 308.844C456.504 308.844 457.536 309.875 458.004 311.938C458.473 313.906 458.708 316.719 458.708 320.375C458.708 323.938 458.426 326.281 457.864 327.406C455.145 332.656 449.145 339.078 439.864 346.672C430.676 354.172 421.958 357.922 413.708 357.922C399.645 357.922 392.614 351.969 392.614 340.062C392.614 332.656 395.426 322.953 401.051 310.953C393.458 320.797 385.723 329.188 377.848 336.125C363.223 348.875 350.52 355.25 339.739 355.25C333.739 355.25 329.286 353.141 326.379 348.922C323.567 344.703 322.161 338.656 322.161 330.781C322.161 322.812 325.254 313.297 331.442 302.234C337.629 291.172 345.317 281.234 354.504 272.422C363.786 263.516 374.051 256.109 385.301 250.203C396.551 244.203 406.911 241.203 416.379 241.203C419.379 241.203 422.895 243.031 426.926 246.688C429.645 242.375 434.661 233.75 441.973 220.812C464.942 182.094 480.129 158.469 487.536 149.938C491.473 144.781 497.614 142.203 505.958 142.203ZM418.348 259.906C404.848 262.906 392.286 269.188 380.661 278.75C369.036 288.312 360.317 298.344 354.504 308.844C348.692 319.25 345.786 326 345.786 329.094C345.786 332.188 346.442 333.734 347.754 333.734C353.379 333.734 367.301 321.172 389.52 296.047C400.583 283.672 410.192 271.625 418.348 259.906Z" fill="white"/>
</svg>
